# xmcd
#
# Track frame offsets: 
#        182
#        16082
#        30107
#        42332
#        56907
#        71432
#        85907
#        103057
#        120482
#        135357
#        149457
#        160582
#        172607
#        187582
#        204557
#        222407
#        237257
#        251057
#        262157
#        274782
#
# Disc length: 3934 seconds
#
# Revision: 3
# Processed by: cddbd v1.5.2PL0 Copyright (c) Steve Scherf et al.
# Submitted via: ExactAudioCopyFreeDBPlugin 1.0
#
DISCID=0e0f5c14
DTITLE=Various Artist - GSCD24 - Hot Wax
DYEAR=1900
DGENRE=Northern Soul
TTITLE0=The Carstairs - It Really Hurts Me Girl
TTITLE1=Jimmy Jones - Ain't nothing Wrong Makin' Love
TTITLE2=Lee Mitchell - The Economy
TTITLE3=Bobby Newton - Shady Lady
TTITLE4=Frank Everett - Spellbound
TTITLE5=Marvin Holmes and Justice - You Better Keep Her
TTITLE6=The Ambitions - When The Fuel Runs Out
TTITLE7=Caress - I Can't Let You Walk Away
TTITLE8=Larry Houston - I've Got To Start My Life Over
TTITLE9=Crystal Motion - You're My Main Squeeze (pt.1)
TTITLE10=David Will - Loneliness
TTITLE11=Johnny Baker - Shy Guy
TTITLE12=Dave Love - Baby Hard Times
TTITLE13=Master Plan - Dance All Nite
TTITLE14=Four Sonics - If It Wasn't For My Baby
TTITLE15=The Brothers - Secret Place
TTITLE16=Tyron St. German - In A World So Cold
TTITLE17=Family Circle - I Hope You Really love Me
TTITLE18=The Committee - Give In To The Power Of Love
TTITLE19=Roy Dawson - Over The Top
EXTD=ID3G: 42
EXTT0=
EXTT1=
EXTT2=
EXTT3=
EXTT4=
EXTT5=
EXTT6=
EXTT7=
EXTT8=
EXTT9=
EXTT10=
EXTT11=
EXTT12=
EXTT13=
EXTT14=
EXTT15=
EXTT16=
EXTT17=
EXTT18=
EXTT19=
PLAYORDER=
